<?xml version="1.0" standalone="no"?>
<!DOCTYPE svg PUBLIC "-//W3C//DTD SVG 20010904//EN"
 "http://www.w3.org/TR/2001/REC-SVG-20010904/DTD/svg10.dtd">
<svg version="1.0" xmlns="http://www.w3.org/2000/svg"
 width="1920.000000pt" height="1920.000000pt" viewBox="0 0 1920.000000 1920.000000"
 preserveAspectRatio="xMidYMid meet">

<g transform="translate(0.000000,1920.000000) scale(0.100000,-0.100000)"
fill="#000000" stroke="none">
<path d="M9620 15770 c-65 -12 -104 -52 -140 -148 -22 -56 -43 -239 -38 -321
l3 -55 51 95 c29 52 66 131 84 176 18 45 39 84 47 87 9 4 45 -10 82 -31 209
-116 317 -251 421 -526 48 -126 56 -115 46 67 -11 229 -50 345 -153 457 -128
138 -291 218 -403 199z"/>
<path d="M8770 15128 c-121 -9 -174 -25 -450 -135 -124 -50 -263 -103 -310
-119 l-85 -29 60 -3 c93 -5 264 15 455 53 260 52 329 54 605 15 542 -75 861
-159 1470 -388 147 -56 365 -125 372 -118 4 4 -329 245 -412 299 -209 133
-538 261 -865 335 -149 34 -468 81 -600 88 -47 3 -98 6 -115 7 -16 2 -73 0
-125 -5z"/>
<path d="M7286 14815 c-55 -38 -218 -176 -213 -181 1 -2 57 15 124 36 179 57
188 58 225 24 26 -26 172 -222 255 -345 17 -25 75 -126 128 -225 105 -193 194
-347 220 -379 15 -19 15 -15 9 50 -8 90 -40 253 -65 330 -29 88 -122 272 -171
336 -24 31 -75 92 -114 135 -40 44 -93 105 -119 137 -71 87 -117 117 -179 116
-41 0 -60 -7 -100 -34z"/>
<path d="M7985 14759 c-66 -11 -127 -22 -135 -25 -25 -9 7 -21 107 -40 75 -14
104 -16 150 -7 70 13 223 71 223 84 0 15 -218 8 -345 -12z"/>
<path d="M10745 14554 c83 -76 276 -205 387 -258 119 -58 222 -91 337 -111 84
-15 97 -20 160 -68 145 -109 330 -203 586 -298 80 -29 99 -41 170 -109 44 -42
107 -96 140 -121 59 -45 182 -120 218 -132 16 -6 16 -4 2 23 -60 117 -261 336
-406 442 -81 60 -217 143 -224 137 -2 -2 24 -42 57 -89 l61 -85 -54 48 c-187
165 -500 377 -704 477 -130 64 -308 140 -327 140 -5 0 33 -40 84 -88 51 -48
118 -111 148 -141 l55 -52 -84 61 c-150 109 -234 147 -501 228 l-165 51 60
-55z"/>
<path d="M7004 14550 c-70 -35 -121 -87 -156 -158 -31 -63 -33 -73 -33 -177 0
-85 5 -126 22 -180 24 -76 182 -360 244 -438 42 -54 199 -193 199 -177 0 6
-21 52 -46 103 -26 50 -71 162 -100 249 -29 86 -73 197 -98 246 -25 49 -54
117 -65 150 -39 116 -21 243 47 338 53 74 52 77 -14 44z"/>
<path d="M6520 14043 c-62 -10 -228 -58 -298 -85 -108 -41 -309 -147 -423
-223 -69 -46 -137 -106 -240 -211 -79 -80 -169 -166 -199 -191 -73 -59 -180
-164 -180 -175 0 -5 15 -1 33 10 17 11 86 43 152 71 66 29 148 71 181 94 34
23 109 74 165 113 57 39 156 102 219 139 159 95 241 151 362 247 56 45 143
113 192 150 48 37 82 67 75 67 -8 -1 -25 -4 -39 -6z"/>
<path d="M7809 13679 c-125 -17 -125 -23 2 -55 159 -40 269 -40 354 1 l60 28
-95 13 c-144 19 -248 23 -321 13z"/>
<path d="M12767 13578 c34 -61 224 -243 301 -288 40 -23 75 -41 77 -38 7 7
-52 97 -103 157 -53 62 -142 130 -224 172 -32 16 -60 29 -63 29 -3 0 2 -15 12
-32z"/>
<path d="M7880 13553 c-41 -8 -79 -18 -83 -22 -10 -10 102 -31 167 -31 61 0
191 29 179 41 -9 9 -132 29 -168 28 -11 -1 -54 -8 -95 -16z"/>
<path d="M7846 13477 c-22 -7 -41 -18 -44 -25 -9 -27 174 -7 214 23 17 13 11
14 -56 14 -41 0 -93 -6 -114 -12z"/>
<path d="M13265 13359 c118 -233 286 -458 498 -663 102 -98 397 -348 732 -621
310 -252 409 -338 583 -510 169 -165 281 -290 325 -363 l28 -47 -7 45 c-9 64
-42 167 -71 225 -132 261 -420 590 -703 802 -74 56 -244 191 -377 300 -132
110 -294 240 -360 288 -209 158 -284 224 -491 432 l-203 205 46 -93z"/>
<path d="M10070 13396 c0 -20 284 -175 298 -162 2 3 -20 29 -49 58 -37 37 -72
61 -112 76 -63 23 -137 39 -137 28z"/>
<path d="M10354 13308 c38 -45 160 -158 171 -158 11 0 -5 43 -31 82 -26 40
-75 77 -137 103 l-39 16 36 -43z"/>
<path d="M9896 13329 c8 -14 135 -73 186 -87 34 -9 36 -9 26 7 -17 28 -75 60
-135 76 -69 18 -87 19 -77 4z"/>
<path d="M7920 13300 c-68 -35 -145 -110 -114 -110 27 0 131 63 174 106 29 29
32 34 15 34 -11 -1 -45 -14 -75 -30z"/>
<path d="M10576 13239 c17 -19 61 -78 98 -131 89 -131 102 -136 71 -31 -26 87
-100 167 -175 188 -25 7 -25 7 6 -26z"/>
<path d="M7361 13223 c57 -60 67 -119 45 -255 -9 -54 -16 -117 -16 -140 l0
-43 40 65 c53 85 73 156 68 236 -6 90 -47 139 -133 159 l-30 7 26 -29z"/>
<path d="M5458 13209 c-86 -20 -209 -100 -368 -239 -36 -31 -91 -78 -123 -103
-32 -26 -55 -47 -52 -47 37 0 168 40 234 72 75 36 100 56 230 184 80 79 139
143 131 143 -8 -1 -32 -5 -52 -10z"/>
<path d="M9363 12808 c-27 -4 -60 -11 -74 -17 -23 -8 -22 -9 16 -16 22 -4 85
-17 140 -28 l100 -22 7 -76 c21 -232 161 -379 375 -396 119 -9 204 13 337 89
89 50 119 62 170 67 l61 7 -35 22 c-19 12 -40 22 -46 22 -6 0 -25 20 -43 45
-63 88 -283 227 -419 264 -127 35 -463 57 -589 39z m606 -190 l24 -9 -21 -15
c-26 -18 -78 -22 -93 -7 -6 6 -8 21 -4 33 6 18 12 20 38 14 18 -3 43 -11 56
-16z"/>
<path d="M4895 12721 c-268 -96 -438 -214 -750 -520 -228 -224 -304 -286 -470
-386 -59 -36 -102 -65 -94 -65 34 0 204 52 287 88 260 112 458 265 877 676
132 129 238 235 235 235 -3 0 -41 -12 -85 -28z"/>
<path d="M7425 12457 c-102 -45 -172 -92 -246 -166 -74 -75 -140 -176 -155
-236 l-7 -30 34 31 c19 17 77 63 129 102 96 71 186 158 275 265 52 62 47 68
-30 34z"/>
<path d="M10405 12380 c-3 -5 7 -12 22 -16 15 -3 46 -13 69 -21 79 -28 169 3
99 35 -31 14 -181 16 -190 2z"/>
<path d="M7498 12239 c-98 -58 -188 -134 -258 -216 -49 -58 -123 -173 -115
-181 2 -2 52 29 112 70 123 84 274 227 327 310 55 86 52 87 -66 17z"/>
<path d="M7373 11990 c-72 -47 -169 -148 -206 -214 -33 -60 -69 -157 -61 -165
9 -9 200 194 256 273 55 79 93 146 81 146 -5 0 -36 -18 -70 -40z"/>
<path d="M15454 11088 c35 -167 42 -690 13 -847 -39 -206 -133 -520 -259 -871
-107 -297 -285 -745 -331 -835 -50 -97 -175 -229 -254 -269 -29 -14 -54 -26
-57 -26 -3 0 20 39 50 88 66 104 262 498 332 667 94 224 152 421 223 745 22
102 39 409 21 380 -6 -8 -64 -163 -130 -345 -240 -659 -298 -803 -488 -1208
-157 -336 -226 -418 -439 -524 -44 -22 -102 -48 -130 -58 -76 -28 -73 -31 19
-23 197 17 335 76 461 198 52 50 67 58 110 64 152 19 330 173 467 402 140 237
301 630 472 1154 108 334 110 341 110 565 1 214 -11 294 -70 484 -47 152 -139
349 -120 259z"/>
<path d="M14165 10393 c-16 -2 -94 -20 -172 -39 -78 -19 -149 -34 -158 -34 -9
0 -14 -4 -11 -9 9 -14 96 -32 221 -44 l117 -12 13 -38 c13 -37 12 -39 -13 -49
-15 -5 -74 -15 -132 -22 -58 -6 -100 -14 -95 -18 22 -13 154 -48 223 -58 95
-15 161 -1 197 42 14 16 25 38 25 49 0 17 8 19 70 19 115 0 170 36 170 111 0
83 -72 110 -290 107 -74 0 -148 -3 -165 -5z"/>
<path d="M6465 8926 c-145 -260 -219 -535 -250 -931 -10 -126 -34 -314 -49
-385 -8 -36 -13 -66 -11 -68 1 -2 27 34 56 80 148 230 246 565 278 948 14 173
25 420 18 420 -3 0 -22 -29 -42 -64z"/>
<path d="M10160 8861 c-41 -13 -105 -48 -139 -77 -31 -26 -87 -111 -79 -119 5
-6 212 134 258 174 34 29 34 30 10 30 -14 -1 -36 -4 -50 -8z"/>
<path d="M10535 8800 c-120 -24 -227 -91 -339 -211 -42 -45 -76 -86 -76 -91 0
-8 87 35 532 266 31 16 55 33 52 38 -6 10 -114 9 -169 -2z"/>
<path d="M6507 8240 c-99 -183 -154 -376 -164 -567 -4 -75 -2 -123 3 -123 14
0 110 216 150 335 18 55 40 140 49 189 16 92 20 236 8 236 -5 0 -25 -32 -46
-70z"/>
<path d="M10695 8291 c-33 -10 -78 -26 -100 -36 -46 -20 -284 -155 -290 -164
-8 -14 146 10 226 35 94 29 151 59 254 134 l69 50 -49 -1 c-28 0 -77 -8 -110
-18z"/>
<path d="M11155 8244 c-152 -30 -177 -40 -367 -145 -168 -93 -249 -126 -343
-140 l-77 -12 33 -14 c49 -21 165 -27 244 -14 83 15 214 67 309 122 87 51 316
200 316 205 0 5 -88 3 -115 -2z"/>
<path d="M12725 8176 c-121 -31 -165 -63 -355 -256 -94 -95 -182 -174 -223
-201 -41 -26 -62 -45 -53 -47 51 -11 215 52 313 119 26 18 102 85 169 150 68
64 158 140 201 167 130 84 128 81 58 81 -33 -1 -82 -6 -110 -13z"/>
<path d="M12975 8063 c-162 -34 -281 -125 -391 -297 l-18 -29 24 13 c14 7 37
21 52 31 45 32 41 21 -21 -50 -127 -148 -181 -275 -189 -442 -5 -125 15 -223
72 -340 l36 -74 -4 75 c-8 188 24 330 150 674 l87 236 96 54 c107 61 251 153
251 161 0 9 -74 4 -145 -12z"/>
<path d="M11815 8020 c-138 -36 -200 -69 -335 -178 -87 -71 -160 -113 -210
-122 l-35 -7 43 -12 c101 -29 261 41 537 232 72 50 134 94 140 99 16 14 -67 8
-140 -12z"/>
<path d="M11345 7994 c-33 -14 -77 -30 -98 -35 -61 -15 -158 -63 -212 -104
-27 -22 -68 -49 -90 -62 l-40 -23 50 0 c56 0 214 52 306 101 71 38 193 148
164 148 -11 0 -47 -11 -80 -25z"/>
<path d="M12348 8005 c-67 -25 -181 -86 -252 -136 -82 -56 -219 -169 -214
-174 8 -8 127 29 196 61 41 18 102 54 136 78 62 44 176 159 176 177 0 5 -1 9
-2 8 -2 0 -20 -6 -40 -14z"/>
<path d="M13176 8009 c-66 -16 -178 -81 -244 -144 -35 -32 -60 -61 -54 -63 33
-11 393 169 418 209 7 11 -68 10 -120 -2z"/>
<path d="M6618 7942 c-77 -124 -128 -280 -148 -447 -13 -117 -13 -178 0 -170
19 12 107 199 134 284 33 105 58 259 54 334 l-3 57 -37 -58z"/>
<path d="M13418 7970 c-43 -11 -107 -34 -142 -52 l-65 -33 277 0 c245 0 283 2
326 19 49 18 131 65 124 70 -1 2 -102 6 -223 9 -194 5 -229 3 -297 -13z"/>
<path d="M6759 7905 c-87 -143 -141 -280 -181 -462 -31 -137 -33 -505 -4 -661
11 -58 23 -98 27 -90 10 18 83 337 113 493 51 268 91 609 84 725 l-3 55 -36
-60z"/>
<path d="M11918 7857 c-68 -35 -172 -90 -231 -123 l-108 -59 42 -3 c63 -5 165
16 228 45 75 35 241 203 202 203 -6 0 -66 -28 -133 -63z"/>
<path d="M12328 7115 c-9 -22 -19 -67 -23 -100 -4 -33 -15 -85 -25 -116 -55
-166 -49 -352 17 -505 l16 -39 9 40 c5 22 10 115 11 208 1 114 5 163 12 153 6
-8 16 -23 23 -33 17 -25 9 299 -10 377 l-14 55 -16 -40z"/>
<path d="M12101 6636 c-57 -172 -75 -391 -51 -611 10 -89 44 -354 59 -450 l7
-50 16 55 c53 179 72 359 65 620 -5 191 -36 482 -57 518 -4 9 -19 -23 -39 -82z"/>
<path d="M11852 6049 c-41 -133 -47 -181 -46 -359 1 -198 14 -281 86 -534 35
-124 43 -144 51 -125 15 38 21 509 8 644 -13 141 -59 416 -71 429 -5 5 -17
-20 -28 -55z"/>
<path d="M7903 6045 c3 -11 15 -78 26 -150 42 -265 54 -452 78 -1240 l6 -200
24 70 c193 558 210 886 64 1225 -53 123 -221 373 -198 295z"/>
<path d="M11622 5473 c-62 -131 -83 -223 -89 -389 -7 -193 21 -329 102 -499
l33 -70 1 146 c1 80 4 315 8 522 4 248 3 377 -4 377 -5 0 -28 -39 -51 -87z"/>
<path d="M8332 5128 c-80 -203 -133 -404 -167 -628 -22 -152 -41 -530 -29
-610 l9 -65 29 75 c146 383 214 678 223 971 6 170 -3 359 -17 359 -4 0 -25
-46 -48 -102z"/>
<path d="M11397 5038 c-68 -91 -95 -189 -104 -373 -4 -94 -1 -166 11 -263 25
-190 50 -264 84 -244 17 11 44 271 45 432 1 136 -6 480 -10 480 -1 0 -13 -15
-26 -32z"/>
<path d="M11081 4839 c-116 -256 -120 -543 -13 -908 10 -36 22 -60 25 -54 10
16 24 178 38 438 8 164 8 265 0 399 -6 99 -13 182 -16 184 -3 3 -18 -24 -34
-59z"/>
<path d="M8441 4530 c-42 -97 -119 -343 -140 -446 -37 -180 -76 -667 -51 -634
25 35 110 212 143 301 20 53 49 154 64 225 24 116 27 149 27 329 0 110 -5 218
-10 240 l-10 39 -23 -54z"/>
<path d="M10811 4258 c-35 -109 -44 -192 -37 -343 3 -77 10 -156 14 -175 l8
-35 23 60 c33 86 51 193 51 298 0 101 -19 257 -31 257 -4 0 -17 -28 -28 -62z"/>
<path d="M10702 3833 c-11 -26 -25 -67 -32 -91 -14 -53 -42 -263 -36 -270 11
-11 31 16 64 87 32 70 36 85 40 189 5 132 -5 157 -36 85z"/>
</g>
</svg>
